<svg width="32" height="36" viewBox="0 0 32 36" fill="none" xmlns="http://www.w3.org/2000/svg">
<path d="M28.25 4.25H20.935C20.2 2.22 18.275 0.75 16 0.75C13.725 0.75 11.8 2.22 11.065 4.25H3.75C1.825 4.25 0.25 5.825 0.25 7.75V32.25C0.25 34.175 1.825 35.75 3.75 35.75H28.25C30.175 35.75 31.75 34.175 31.75 32.25V7.75C31.75 5.825 30.175 4.25 28.25 4.25ZM16 4.25C16.9625 4.25 17.75 5.0375 17.75 6C17.75 6.9625 16.9625 7.75 16 7.75C15.0375 7.75 14.25 6.9625 14.25 6C14.25 5.0375 15.0375 4.25 16 4.25ZM19.5 28.75H7.25V25.25H19.5V28.75ZM24.75 21.75H7.25V18.25H24.75V21.75ZM24.75 14.75H7.25V11.25H24.75V14.75Z" fill="#F9F9F9"/>
</svg>
